<?xml version="1.0" encoding="UTF-8"?>
<svg id="Ebene_2" data-name="Ebene 2" xmlns="http://www.w3.org/2000/svg" version="1.1" viewBox="0 0 2000 2000">
  <defs>
    <style>
      .cls-1 {
        fill: #0065bd;
      }

      .cls-1, .cls-2, .cls-3 {
        stroke-width: 0px;
      }

      .cls-2 {
        fill: #000;
      }

      .cls-3 {
        fill: #fff;
      }
    </style>
  </defs>
  <rect class="cls-1" y="0" width="2000" height="2000"/>
  <g id="Hand">
    <path class="cls-3" d="M550.64,659.6l-228.95-146.29c-14.54-9.29-31.93-13.06-49.01-10.62h0c-8.99,1.28-17.19,5.86-23,12.84h0c-8.52,10.23-13.19,23.12-13.19,36.43v424.64c0,14.37,6.95,27.85,18.66,36.19,40.85,29.09,136.27,100.86,157.94,151.07,3.27,7.58,11.99,11.02,19.49,7.57,34.59-15.9,120.47-43.07,176.13,45.13,3.12,4.95,8.96,7.51,14.73,6.51,26.85-4.66,102.5-9.88,131.31,71.32,2.23,6.28,8.34,10.29,14.98,9.77,32.29-2.5,122.42,1.56,134.74,122.5.65,6.42,5.44,11.65,11.77,12.85,31.75,6,120.96,35.69,101.96,179.05-.92,6.97,3.3,13.6,9.99,15.74,32.37,10.38,120.3,28.26,114.39-86.3-.51-9.93,8.82-17.35,18.44-14.82,45.98,12.13,132.12,22.34,131.28-80.22-.06-7.55,8.12-13.02,15.6-12.01,35.83,4.82,137.96,5.6,121.22-108.1-1.57-10.69,7.43-19.83,17.89-17.14,38.62,9.94,111.07,15.34,132.88-74.27,25.81-106.03-414.79-333.86-543.93-398.09-22.72-11.3-47.74-17.17-73.11-17.17h-108.11c-6.61,0-12.39,4.43-14.1,10.81-9.29,34.73-48.22,142.67-177.64,167.56-142.36,27.38-159.56-67.7-155.7-98.81,3.34-27.01,40.09-188.51,49.71-230.58,1.37-6.01-1.18-12.23-6.37-15.55Z"/>
    <path class="cls-3" d="M1484.82,618.38l218.76-109.27c9.16-4.57,19.75-5.36,29.48-2.19h0c9.29,3.03,17.1,9.43,21.89,17.94h0c5.61,9.97,8.55,21.22,8.55,32.66v362.23c0,12.73-6.22,24.67-16.67,31.95l-154.16,107.55c-19.69,13.73-45.98,13.2-65.1-1.31l-187.2-142.15c-1.57-1.19-3.23-2.26-4.96-3.2l-294.46-160c-6.89-3.74-14.6-5.71-22.43-5.73l-179.24-.46c-22.67-.06-43.63,12.08-54.87,31.77-46.16,80.88-63.94,122.17-113.85,139.63-4.09,1.43-8.4,2.13-12.72,2.13h-12.77c-29.25,0-52.32-24.92-50.02-54.08,3.55-45.09,11.88-108.51,31.41-150.36,33.19-71.11,82.57-111.66,160.59-128.59,141.33-30.67,155.26-47.41,244.74-52.74,85.33-2.99,333.15,66.28,409.31,88.24,14.56,4.2,30.15,2.77,43.71-4Z"/>
    <path class="cls-3" d="M498.67,1227.23l23.77,6c8,2.02,14.78,7.3,18.7,14.55l2.32,4.29c2.32,4.3,3.54,9.1,3.54,13.99v40.69c0,5.43-1.5,10.76-4.35,15.39l-23.65,38.55c-3.99,6.51-10.36,11.21-17.75,13.11l-22.7,5.84c-6.87,1.77-14.16,1-20.5-2.18l-30.33-15.16c-2.83-1.41-5.41-3.28-7.65-5.51h0c-5.52-5.52-8.62-13.01-8.62-20.82v-34.59c0-6,1.83-11.85,5.25-16.78l15.83-22.81c1.05-1.52,2.25-2.94,3.57-4.23l16.87-16.56c3.09-3.03,6.82-5.35,10.91-6.78l17.89-6.25c5.44-1.9,11.32-2.16,16.91-.75Z"/>
    <path class="cls-2" d="M635.21,1391.57c3.22,0,3.22-5,0-5s-3.22,5,0,5h0Z"/>
    <path class="cls-3" d="M637.47,1303.74h16.07c10.49,0,20.52,4.26,27.81,11.81h0c6.95,7.2,10.83,16.82,10.83,26.82v30.92c0,5.99-1.39,11.9-4.07,17.26l-26.59,53.24c-1.77,3.54-4.07,6.79-6.83,9.63l-17.79,18.34c-7.28,7.5-17.28,11.74-27.73,11.74h-23.35c-10.07,0-19.75-3.93-26.96-10.96l-7.18-7c-3.09-3.02-5.66-6.53-7.59-10.39l-1.94-3.88c-4.13-8.26-5.16-17.73-2.92-26.68l6.07-24.19c1.13-4.48,3.05-8.73,5.67-12.53l18.85-27.32,18.36-27.77c2.75-4.16,6.28-7.75,10.39-10.57l17.08-11.71c6.43-4.41,14.04-6.76,21.84-6.76Z"/>
    <path class="cls-3" d="M783.78,1382.4h5.54c10.25,0,20.08,4.12,27.27,11.43h0c7.04,7.15,10.98,16.79,10.98,26.82v41.94c0,5.96-1.39,11.84-4.07,17.17l-27.09,53.95c-1.73,3.45-3.98,6.63-6.67,9.41l-18.15,18.79c-7.21,7.46-17.14,11.68-27.51,11.68h-12.36c-10.15,0-19.87-4.03-27.05-11.2l-7.36-7.36c-2.63-2.63-4.85-5.62-6.62-8.89l-4.9-9.09c-3.01-5.58-4.59-11.82-4.59-18.16v-23.21c0-7.92,2.46-15.64,7.03-22.1l16.67-23.55,29.54-39.74c2.61-3.51,5.8-6.54,9.43-8.97l18.63-12.46c6.29-4.21,13.7-6.46,21.27-6.46Z"/>
    <path class="cls-3" d="M883.23,1517.59h16.02c11.25,0,22.07,4.32,30.22,12.06h0c6.94,6.59,11.54,15.28,13.09,24.72l2.84,17.3c.76,4.61.77,9.3.05,13.91l-3.04,19.4c-1.45,9.24-5.82,17.78-12.46,24.37l-10.72,10.62c-8.22,8.15-19.33,12.72-30.9,12.72h-20.22c-11.54,0-22.62-4.55-30.83-12.65l-4.6-4.54c-3.37-3.33-6.19-7.18-8.33-11.41l-3.88-7.67c-3.11-6.15-4.73-12.94-4.73-19.83v-11.9c0-7.29,1.81-14.46,5.28-20.87l3.46-6.39c2.07-3.82,4.69-7.31,7.78-10.37l13.66-13.48c3.18-3.14,6.81-5.77,10.79-7.81l6.49-3.33c6.2-3.19,13.08-4.85,20.05-4.85Z"/>
  </g>
</svg>